<?xml version="1.0" encoding="utf-8"?>
<!-- Generator: Adobe Illustrator 18.0.0, SVG Export Plug-In . SVG Version: 6.00 Build 0)  -->
<!DOCTYPE svg PUBLIC "-//W3C//DTD SVG 1.1//EN" "http://www.w3.org/Graphics/SVG/1.1/DTD/svg11.dtd">
<svg version="1.1" id="Layer_1" xmlns="http://www.w3.org/2000/svg" xmlns:xlink="http://www.w3.org/1999/xlink" x="0px" y="0px"
	 viewBox="0 0 64 64" enable-background="new 0 0 64 64" xml:space="preserve">
<g>
	<g>
		<path fill="#3F729B" d="M32,0c17.7,0,32,14.3,32,32S49.7,64,32,64S0,49.7,0,32S14.3,0,32,0z"/>
	</g>
	<g>
		<path fill-rule="evenodd" clip-rule="evenodd" fill="#FFFFFF" d="M18.6,14h26.8c2.5,0,4.6,2.1,4.6,4.6v26.8c0,2.5-2.1,4.6-4.6,4.6
			H18.6c-2.5,0-4.6-2.1-4.6-4.6V18.6C14,16.1,16.1,14,18.6,14L18.6,14z M40.2,18c-0.9,0-1.6,0.7-1.6,1.6v3.9c0,0.9,0.7,1.6,1.6,1.6
			h4.1c0.9,0,1.6-0.7,1.6-1.6v-3.9c0-0.9-0.7-1.6-1.6-1.6H40.2L40.2,18z M45.9,29.2h-3.2c0.3,1,0.5,2,0.5,3.1c0,6-5,10.8-11.2,10.8
			c-6.2,0-11.2-4.9-11.2-10.8c0-1.1,0.2-2.1,0.5-3.1H18v15.2c0,0.8,0.6,1.4,1.4,1.4h25.1c0.8,0,1.4-0.6,1.4-1.4V29.2L45.9,29.2z
			 M32,24.9c-4,0-7.2,3.1-7.2,7c0,3.9,3.2,7,7.2,7c4,0,7.2-3.1,7.2-7C39.3,28.1,36,24.9,32,24.9z"/>
	</g>
</g>
</svg>
